<?xml version="1.0" encoding="UTF-8"?>
<svg id="Lag_3" xmlns="http://www.w3.org/2000/svg" viewBox="0 0 576 146.16">
  <g>
    <path d="M114,74.38l23-34.29c-7.58-14.56-20.04-26.17-35.23-32.63l12.23,66.92Z"/>
    <path d="M5.99,52.41c-1.94,6.47-2.99,13.32-2.99,20.42,0,9.68,1.94,18.9,5.45,27.31l36.82-54.9-39.28,7.18Z"/>
    <path d="M101.95,44.74l-7.28-39.84c-6.54-1.99-13.48-3.07-20.67-3.07-9.82,0-19.17,1.99-27.68,5.6l55.63,37.31Z"/>
    <path d="M34.5,72.99l-22.78,33.96c7.67,13.98,19.91,25.09,34.71,31.33l-11.93-65.29Z"/>
    <path d="M75.21,113.1l32.85,22.03c13.67-7.49,24.59-19.34,30.92-33.69l-63.77,11.66Z"/>
    <path d="M46.36,101.61l7.17,39.21c6.48,1.95,13.35,3.01,20.47,3.01,9.65,0,18.84-1.93,27.23-5.42l-54.87-36.8Z"/>
    <path d="M73.43,33.46L39.56,10.74c-13.84,7.69-24.84,19.87-31.03,34.58l64.9-11.86Z"/>
  </g>
  <path d="M130,81.45l-8,13.67h-15c1.14-1.93,32-48.62,33.28-50.77h21.19l.18,50.77h-14.27l.24-13.67h-17.64ZM147.77,74.33c.31-7.74.48-17.32.73-22.93h-.53c-1.67,4.5-9.07,15.04-12.97,22.93h12.77Z"/>
  <path d="M188.6,44.34h18.01c15.38,0,22.49,5.02,20.27,13.53l-.89,3.49c-2.05,8.1-7.88,12.19-26.02,12.19h-5.63l-6.13,21.56h-14.14l14.54-50.77ZM196.24,67.17h4.75c7.83,0,9.59-2.16,10.8-6.24l.83-2.94c1.17-4,.89-7.2-7.09-7.2h-4.69l-4.6,16.38Z"/>
  <path d="M273.89,71.65h-19.95l-4.54,16.41h24.14l-3.86,7.05h-36.52l14.54-50.77h35.23l-2.09,7.05h-21.08l-3.72,13.21h19.96l-2.1,7.05Z"/>
  <path d="M307.25,72.52l-6.46,22.59h-14.14l14.54-50.77h18.12c14.76,0,22.15,4.28,19.83,12.91l-.73,2.69c-1.84,6.84-6.77,8.79-12.1,9.59,3.89,1.4,7.39,3.74,5.01,11.61-1.34,4.27-3.12,10.89-3.06,13.97h-14.04c-.17-3.09,1.75-9.48,3.46-15.52,1.49-5.3.23-7.07-6.93-7.07h-3.5ZM309.05,66.06h3.08c8.13,0,10.79-1.28,12.07-6.59l.61-2.64c.92-3.85-.21-6.03-7.4-6.03h-3.98l-4.39,15.27Z"/>
  <path d="M365.49,51.46h-14.35l2.08-7.12h42.93l-2.08,7.12h-14.44l-12.46,43.65h-14.14l12.46-43.65Z"/>
  <path d="M425.57,44.83l-11.11,38.78c-.96,3.48.69,5.68,6.21,5.68,6.14,0,7.59-2.46,8.49-5.7l11.11-38.76h14.28l-10.92,38.07c-2.36,8.03-5.95,13.31-23.64,13.31-15.18,0-22-4.41-19.5-13.26l10.93-38.12h14.14Z"/>
  <path d="M480.91,72.52l-6.46,22.59h-14.14l14.54-50.77h18.12c14.76,0,22.15,4.28,19.83,12.91l-.73,2.69c-1.84,6.84-6.77,8.79-12.1,9.59,3.89,1.4,7.39,3.74,5.01,11.61-1.34,4.27-3.12,10.89-3.06,13.97h-14.04c-.17-3.09,1.75-9.48,3.46-15.52,1.49-5.3.23-7.07-6.93-7.07h-3.5ZM482.71,66.06h3.08c8.13,0,10.79-1.28,12.07-6.59l.61-2.64c.92-3.85-.21-6.03-7.4-6.03h-3.98l-4.39,15.27Z"/>
  <path d="M559.26,71.65h-19.95l-4.54,16.41h24.14l-3.86,7.05h-36.52l14.54-50.77h35.23l-2.09,7.05h-21.08l-3.72,13.21h19.96l-2.1,7.05Z"/>
  <g>
    <path d="M173.22,124.84h-15.75v-21.39h1.95v19.82h13.79v1.56Z"/>
    <path d="M210.41,124.84h-2.34l-3.27-6.88h-13.16c-.47,1.08-.98,2.22-1.54,3.43-.55,1.2-1.08,2.35-1.59,3.45h-2.08c.88-1.85,1.75-3.66,2.6-5.43.85-1.77,1.7-3.53,2.55-5.28.85-1.75,1.7-3.51,2.55-5.28.85-1.77,1.72-3.57,2.6-5.41h2.76l10.91,21.41ZM204.23,116.74l-6.2-11.89-5.88,11.89h12.08Z"/>
    <path d="M244.74,118.84c0,1.94-.82,3.42-2.45,4.45-1.64,1.03-4.04,1.54-7.21,1.54h-9.72v-21.39h9.67c2.69,0,4.74.41,6.16,1.22,1.42.81,2.14,2.11,2.14,3.9,0,.5-.06,1.01-.18,1.53s-.35,1.02-.67,1.47c-.33.46-.77.86-1.34,1.22-.57.36-1.3.62-2.2.77,1.25.09,2.26.31,3.02.65.76.35,1.34.77,1.76,1.26.42.5.69,1.04.83,1.63.14.59.21,1.17.21,1.73ZM227.31,112.85h7.18c2.38,0,4.13-.31,5.25-.92,1.12-.61,1.68-1.64,1.68-3.09,0-1.3-.52-2.27-1.56-2.9-1.04-.63-2.71-.95-5-.95l-7.54.02v7.83ZM227.31,123.28h7.74c5.05,0,7.57-1.48,7.57-4.43,0-.77-.13-1.43-.39-1.99-.26-.56-.7-1.02-1.33-1.38-.63-.36-1.46-.62-2.49-.8-1.03-.18-2.33-.26-3.89-.26h-7.2v8.87Z"/>
    <path d="M272.7,103.06c1.82,0,3.51.26,5.05.78,1.55.52,2.88,1.26,3.99,2.23,1.11.96,1.99,2.12,2.61,3.48.63,1.35.94,2.86.94,4.53s-.31,3.16-.93,4.53c-.62,1.37-1.49,2.54-2.6,3.53-1.12.98-2.44,1.75-3.98,2.29s-3.23.81-5.09.81-3.56-.27-5.1-.81c-1.55-.54-2.88-1.3-3.99-2.28-1.12-.98-1.98-2.15-2.6-3.52-.62-1.37-.93-2.88-.93-4.55s.31-3.2.94-4.55c.63-1.35,1.5-2.51,2.62-3.47s2.45-1.7,3.99-2.22c1.54-.52,3.23-.78,5.07-.78ZM272.68,123.67c1.53,0,2.94-.21,4.24-.63,1.29-.42,2.41-1.04,3.36-1.87.94-.82,1.68-1.83,2.2-3.02.52-1.19.78-2.55.78-4.07s-.26-2.89-.79-4.06c-.53-1.17-1.26-2.16-2.2-2.96-.94-.8-2.04-1.41-3.32-1.82-1.28-.41-2.67-.62-4.19-.62s-2.97.21-4.26.62c-1.29.42-2.41,1.03-3.36,1.83-.94.8-1.68,1.79-2.21,2.96-.53,1.17-.79,2.52-.79,4.04s.26,2.88.78,4.07c.52,1.19,1.25,2.2,2.19,3.02.94.82,2.05,1.44,3.34,1.87,1.29.42,2.71.63,4.24.63Z"/>
    <path d="M323.13,124.84h-2.15l-2.66-5.68c-.26-.55-.55-1.06-.87-1.54-.32-.48-.69-.9-1.11-1.26-.42-.36-.91-.64-1.45-.85-.55-.21-1.18-.31-1.92-.31h-9.35v9.65h-1.95v-21.39h12.04c1.12,0,2.21.08,3.26.24,1.05.16,1.99.45,2.81.87.82.42,1.48.99,1.97,1.73.49.74.73,1.68.73,2.82,0,.72-.11,1.38-.33,2-.22.62-.55,1.17-1,1.66-.45.49-1.02.91-1.71,1.25-.69.35-1.5.6-2.43.75.5.31.92.61,1.25.9.33.29.61.59.84.92.24.33.45.68.63,1.07.19.39.4.84.65,1.35l2.76,5.82ZM303.62,113.63h9.28c1.32,0,2.45-.08,3.39-.23.94-.16,1.72-.41,2.33-.77.61-.36,1.06-.82,1.35-1.4.29-.57.44-1.28.44-2.11,0-1.47-.58-2.52-1.75-3.15-1.16-.63-2.9-.95-5.21-.95h-9.84v8.61Z"/>
    <path d="M360.98,124.84h-2.34l-3.27-6.88h-13.16c-.47,1.08-.98,2.22-1.54,3.43-.55,1.2-1.08,2.35-1.59,3.45h-2.08c.88-1.85,1.75-3.66,2.6-5.43.85-1.77,1.7-3.53,2.55-5.28.85-1.75,1.7-3.51,2.55-5.28.85-1.77,1.72-3.57,2.6-5.41h2.76l10.91,21.41ZM354.8,116.74l-6.2-11.89-5.88,11.89h12.08Z"/>
    <path d="M394.28,105.02h-9.35v19.82h-1.95v-19.82h-9.25v-1.56h20.56v1.56Z"/>
    <path d="M421.15,103.06c1.82,0,3.51.26,5.05.78,1.55.52,2.88,1.26,3.99,2.23,1.11.96,1.99,2.12,2.61,3.48.63,1.35.94,2.86.94,4.53s-.31,3.16-.93,4.53c-.62,1.37-1.49,2.54-2.6,3.53-1.12.98-2.44,1.75-3.98,2.29s-3.23.81-5.09.81-3.56-.27-5.1-.81c-1.55-.54-2.88-1.3-3.99-2.28-1.12-.98-1.98-2.15-2.6-3.52-.62-1.37-.93-2.88-.93-4.55s.31-3.2.94-4.55c.63-1.35,1.5-2.51,2.62-3.47s2.45-1.7,3.99-2.22c1.54-.52,3.23-.78,5.07-.78ZM421.12,123.67c1.53,0,2.94-.21,4.24-.63,1.29-.42,2.41-1.04,3.36-1.87.94-.82,1.68-1.83,2.2-3.02.52-1.19.78-2.55.78-4.07s-.26-2.89-.79-4.06c-.53-1.17-1.26-2.16-2.2-2.96-.94-.8-2.04-1.41-3.32-1.82-1.28-.41-2.67-.62-4.19-.62s-2.97.21-4.26.62c-1.29.42-2.41,1.03-3.36,1.83-.94.8-1.68,1.79-2.21,2.96-.53,1.17-.79,2.52-.79,4.04s.26,2.88.78,4.07c.52,1.19,1.25,2.2,2.19,3.02.94.82,2.05,1.44,3.34,1.87,1.29.42,2.71.63,4.24.63Z"/>
    <path d="M471.57,124.84h-2.15l-2.66-5.68c-.26-.55-.55-1.06-.87-1.54-.32-.48-.69-.9-1.11-1.26-.42-.36-.91-.64-1.45-.85-.55-.21-1.18-.31-1.92-.31h-9.35v9.65h-1.95v-21.39h12.04c1.12,0,2.21.08,3.26.24,1.05.16,1.99.45,2.81.87.82.42,1.48.99,1.97,1.73.49.74.73,1.68.73,2.82,0,.72-.11,1.38-.33,2-.22.62-.55,1.17-1,1.66-.45.49-1.02.91-1.71,1.25-.69.35-1.5.6-2.43.75.5.31.92.61,1.25.9.33.29.61.59.84.92.24.33.45.68.63,1.07.19.39.4.84.65,1.35l2.76,5.82ZM452.06,113.63h9.28c1.32,0,2.45-.08,3.39-.23.94-.16,1.72-.41,2.33-.77.61-.36,1.06-.82,1.35-1.4.29-.57.44-1.28.44-2.11,0-1.47-.58-2.52-1.75-3.15-1.16-.63-2.9-.95-5.21-.95h-9.84v8.61Z"/>
    <path d="M491.06,124.84h-1.95v-21.39h1.95v21.39Z"/>
    <path d="M528.91,124.84h-19.31v-21.39h18.65v1.56h-16.7v7.91h15.65v1.56h-15.65v8.79h17.36v1.56Z"/>
    <path d="M555.46,125.23c-1.81,0-3.39-.15-4.74-.46-1.35-.31-2.49-.74-3.41-1.31-.92-.57-1.62-1.25-2.11-2.05s-.77-1.7-.85-2.71h1.93c.2.96.56,1.76,1.1,2.4.54.64,1.2,1.15,1.99,1.52.79.38,1.69.64,2.7.8,1.01.16,2.08.23,3.22.23s2.26-.1,3.21-.3c.95-.2,1.77-.49,2.44-.88.68-.38,1.19-.85,1.55-1.39.36-.54.54-1.15.54-1.83,0-.72-.16-1.32-.46-1.81s-.83-.91-1.56-1.28c-.73-.36-1.7-.69-2.89-.98-1.2-.29-2.68-.58-4.46-.88-1.46-.26-2.72-.56-3.77-.9-1.05-.34-1.92-.73-2.6-1.18s-1.19-.96-1.51-1.54c-.33-.58-.49-1.25-.49-2.02,0-.83.22-1.59.66-2.29.44-.69,1.06-1.28,1.87-1.78.81-.49,1.77-.88,2.91-1.15,1.13-.27,2.38-.41,3.75-.41s2.62.13,3.76.38,2.14.62,2.99,1.1c.86.48,1.55,1.07,2.08,1.76.53.69.87,1.47,1.01,2.34h-1.88c-.18-.57-.47-1.11-.88-1.6-.41-.49-.93-.92-1.57-1.28-.64-.36-1.41-.64-2.29-.84-.89-.2-1.9-.3-3.04-.3-2.39,0-4.2.35-5.43,1.05-1.23.7-1.84,1.67-1.84,2.89,0,.56.11,1.05.34,1.46.23.42.61.79,1.16,1.12.54.33,1.27.62,2.16.88.9.25,2.01.49,3.34.71.78.13,1.59.27,2.42.41.83.14,1.64.31,2.43.51.79.2,1.54.44,2.26.72.71.29,1.34.64,1.87,1.05.53.42.95.92,1.27,1.49.32.58.48,1.27.48,2.06,0,.91-.24,1.75-.72,2.51s-1.15,1.42-2,1.97c-.86.55-1.87.98-3.05,1.29-1.18.31-2.46.46-3.84.46Z"/>
  </g>
</svg>